<?xml version="1.0" encoding="UTF-8" standalone="no"?>
<!DOCTYPE svg PUBLIC "-//W3C//DTD SVG 1.1//EN"
 "http://www.w3.org/Graphics/SVG/1.1/DTD/svg11.dtd">
<!-- Generated by graphviz version 14.1.2 (20260124.0452)
 -->
<!-- Title: core/include/Sturm/Poly.hh Pages: 1 -->
<svg width="415pt" height="149pt"
 viewBox="0.00 0.00 415.00 149.00" xmlns="http://www.w3.org/2000/svg" xmlns:xlink="http://www.w3.org/1999/xlink">
<g id="graph0" class="graph" transform="scale(1 1) rotate(0) translate(4 145)">
<title>core/include/Sturm/Poly.hh</title>
<!-- Node1 -->
<g id="Node000001" class="node">
<title>Node1</title>
<g id="a_Node000001"><a xlink:title=" ">
<polygon fill="#999999" stroke="#666666" points="251.75,-141 154,-141 154,-110.5 251.75,-110.5 251.75,-141"/>
<text xml:space="preserve" text-anchor="start" x="162" y="-127.5" font-family="Helvetica,sans-Serif" font-size="10.00">core/include/Sturm</text>
<text xml:space="preserve" text-anchor="middle" x="202.88" y="-116.25" font-family="Helvetica,sans-Serif" font-size="10.00">/Poly.hh</text>
</a>
</g>
</g>
<!-- Node2 -->
<g id="Node000002" class="node">
<title>Node2</title>
<g id="a_Node000002"><a xlink:href="_sturm_8hh.html" target="_top" xlink:title=" ">
<polygon fill="white" stroke="#666666" points="230.75,-74.5 175,-74.5 175,-55.25 230.75,-55.25 230.75,-74.5"/>
<text xml:space="preserve" text-anchor="middle" x="202.88" y="-61" font-family="Helvetica,sans-Serif" font-size="10.00">Sturm.hh</text>
</a>
</g>
</g>
<!-- Node1&#45;&gt;Node2 -->
<g id="edge1_Node000001_Node000002" class="edge">
<title>Node1&#45;&gt;Node2</title>
<g id="a_edge1_Node000001_Node000002"><a xlink:title=" ">
<path fill="none" stroke="#63b8ff" d="M202.88,-110.2C202.88,-102.96 202.88,-94.09 202.88,-86.19"/>
<polygon fill="#63b8ff" stroke="#63b8ff" points="206.38,-86.46 202.88,-76.46 199.38,-86.46 206.38,-86.46"/>
</a>
</g>
</g>
<!-- Node3 -->
<g id="Node000003" class="node">
<title>Node3</title>
<g id="a_Node000003"><a xlink:title=" ">
<polygon fill="#e0e0e0" stroke="#999999" points="55.75,-19.25 0,-19.25 0,0 55.75,0 55.75,-19.25"/>
<text xml:space="preserve" text-anchor="middle" x="27.88" y="-5.75" font-family="Helvetica,sans-Serif" font-size="10.00">algorithm</text>
</a>
</g>
</g>
<!-- Node2&#45;&gt;Node3 -->
<g id="edge2_Node000002_Node000003" class="edge">
<title>Node2&#45;&gt;Node3</title>
<g id="a_edge2_Node000002_Node000003"><a xlink:title=" ">
<path fill="none" stroke="#63b8ff" d="M174.76,-55.32C145.63,-46.46 99.88,-32.54 67.19,-22.59"/>
<polygon fill="#63b8ff" stroke="#63b8ff" points="68.25,-19.25 57.66,-19.69 66.21,-25.95 68.25,-19.25"/>
</a>
</g>
</g>
<!-- Node4 -->
<g id="Node000004" class="node">
<title>Node4</title>
<g id="a_Node000004"><a xlink:title=" ">
<polygon fill="#e0e0e0" stroke="#999999" points="127.62,-19.25 74.12,-19.25 74.12,0 127.62,0 127.62,-19.25"/>
<text xml:space="preserve" text-anchor="middle" x="100.88" y="-5.75" font-family="Helvetica,sans-Serif" font-size="10.00">iostream</text>
</a>
</g>
</g>
<!-- Node2&#45;&gt;Node4 -->
<g id="edge3_Node000002_Node000004" class="edge">
<title>Node2&#45;&gt;Node4</title>
<g id="a_edge3_Node000002_Node000004"><a xlink:title=" ">
<path fill="none" stroke="#63b8ff" d="M185.57,-54.84C169.89,-46.66 146.52,-34.46 128.3,-24.94"/>
<polygon fill="#63b8ff" stroke="#63b8ff" points="130.09,-21.93 119.6,-20.4 126.85,-28.13 130.09,-21.93"/>
</a>
</g>
</g>
<!-- Node5 -->
<g id="Node000005" class="node">
<title>Node5</title>
<g id="a_Node000005"><a xlink:title=" ">
<polygon fill="#e0e0e0" stroke="#999999" points="196.5,-19.25 145.25,-19.25 145.25,0 196.5,0 196.5,-19.25"/>
<text xml:space="preserve" text-anchor="middle" x="170.88" y="-5.75" font-family="Helvetica,sans-Serif" font-size="10.00">sstream</text>
</a>
</g>
</g>
<!-- Node2&#45;&gt;Node5 -->
<g id="edge4_Node000002_Node000005" class="edge">
<title>Node2&#45;&gt;Node5</title>
<g id="a_edge4_Node000002_Node000005"><a xlink:title=" ">
<path fill="none" stroke="#63b8ff" d="M197.59,-55.08C193.4,-48.11 187.4,-38.12 182.14,-29.37"/>
<polygon fill="#63b8ff" stroke="#63b8ff" points="185.2,-27.68 177.05,-20.91 179.2,-31.28 185.2,-27.68"/>
</a>
</g>
</g>
<!-- Node6 -->
<g id="Node000006" class="node">
<title>Node6</title>
<g id="a_Node000006"><a xlink:title=" ">
<polygon fill="#e0e0e0" stroke="#999999" points="254.88,-19.25 214.88,-19.25 214.88,0 254.88,0 254.88,-19.25"/>
<text xml:space="preserve" text-anchor="middle" x="234.88" y="-5.75" font-family="Helvetica,sans-Serif" font-size="10.00">string</text>
</a>
</g>
</g>
<!-- Node2&#45;&gt;Node6 -->
<g id="edge5_Node000002_Node000006" class="edge">
<title>Node2&#45;&gt;Node6</title>
<g id="a_edge5_Node000002_Node000006"><a xlink:title=" ">
<path fill="none" stroke="#63b8ff" d="M208.16,-55.08C212.35,-48.11 218.35,-38.12 223.61,-29.37"/>
<polygon fill="#63b8ff" stroke="#63b8ff" points="226.55,-31.28 228.7,-20.91 220.55,-27.68 226.55,-31.28"/>
</a>
</g>
</g>
<!-- Node7 -->
<g id="Node000007" class="node">
<title>Node7</title>
<g id="a_Node000007"><a xlink:title=" ">
<polygon fill="#e0e0e0" stroke="#999999" points="316.38,-19.25 273.38,-19.25 273.38,0 316.38,0 316.38,-19.25"/>
<text xml:space="preserve" text-anchor="middle" x="294.88" y="-5.75" font-family="Helvetica,sans-Serif" font-size="10.00">vector</text>
</a>
</g>
</g>
<!-- Node2&#45;&gt;Node7 -->
<g id="edge6_Node000002_Node000007" class="edge">
<title>Node2&#45;&gt;Node7</title>
<g id="a_edge6_Node000002_Node000007"><a xlink:title=" ">
<path fill="none" stroke="#63b8ff" d="M218.48,-54.84C232.49,-46.73 253.31,-34.68 269.68,-25.21"/>
<polygon fill="#63b8ff" stroke="#63b8ff" points="270.98,-28.5 277.88,-20.46 267.47,-22.44 270.98,-28.5"/>
</a>
</g>
</g>
<!-- Node8 -->
<g id="Node000008" class="node">
<title>Node8</title>
<g id="a_Node000008"><a xlink:title=" ">
<polygon fill="#e0e0e0" stroke="#999999" points="407,-19.25 334.75,-19.25 334.75,0 407,0 407,-19.25"/>
<text xml:space="preserve" text-anchor="middle" x="370.88" y="-5.75" font-family="Helvetica,sans-Serif" font-size="10.00">Eigen/Dense</text>
</a>
</g>
</g>
<!-- Node2&#45;&gt;Node8 -->
<g id="edge7_Node000002_Node000008" class="edge">
<title>Node2&#45;&gt;Node8</title>
<g id="a_edge7_Node000002_Node000008"><a xlink:title=" ">
<path fill="none" stroke="#63b8ff" d="M230.99,-54.96C258.45,-46.26 300.48,-32.94 331.3,-23.17"/>
<polygon fill="#63b8ff" stroke="#63b8ff" points="332.18,-26.56 340.66,-20.2 330.07,-19.89 332.18,-26.56"/>
</a>
</g>
</g>
</g>
</svg>
