<?xml version="1.0" encoding="UTF-8" standalone="no"?>
<!DOCTYPE svg PUBLIC "-//W3C//DTD SVG 1.1//EN"
 "http://www.w3.org/Graphics/SVG/1.1/DTD/svg11.dtd">
<!-- Generated by graphviz version 12.2.1 (20241206.2353)
 -->
<!-- Title: include/Sturm.hh Pages: 1 -->
<svg width="724pt" height="83pt"
 viewBox="0.00 0.00 723.50 82.50" xmlns="http://www.w3.org/2000/svg" xmlns:xlink="http://www.w3.org/1999/xlink">
<g id="graph0" class="graph" transform="scale(1 1) rotate(0) translate(4 78.5)">
<title>include/Sturm.hh</title>
<!-- Node1 -->
<g id="Node000001" class="node">
<title>Node1</title>
<g id="a_Node000001"><a xlink:title=" ">
<polygon fill="#999999" stroke="#666666" points="332.5,-74.5 243,-74.5 243,-55.25 332.5,-55.25 332.5,-74.5"/>
<text text-anchor="middle" x="287.75" y="-61" font-family="Helvetica,sans-Serif" font-size="10.00">include/Sturm.hh</text>
</a>
</g>
</g>
<!-- Node2 -->
<g id="Node000002" class="node">
<title>Node2</title>
<g id="a_Node000002"><a xlink:title=" ">
<polygon fill="#e0e0e0" stroke="#999999" points="53.5,-19.25 0,-19.25 0,0 53.5,0 53.5,-19.25"/>
<text text-anchor="middle" x="26.75" y="-5.75" font-family="Helvetica,sans-Serif" font-size="10.00">iostream</text>
</a>
</g>
</g>
<!-- Node1&#45;&gt;Node2 -->
<g id="edge1_Node000001_Node000002" class="edge">
<title>Node1&#45;&gt;Node2</title>
<g id="a_edge1_Node000001_Node000002"><a xlink:title=" ">
<path fill="none" stroke="#63b8ff" d="M242.6,-55.6C199.3,-47.52 131.81,-34.57 65,-19.9"/>
<polygon fill="#63b8ff" stroke="#63b8ff" points="65.85,-16.5 55.33,-17.76 64.34,-23.34 65.85,-16.5"/>
</a>
</g>
</g>
<!-- Node3 -->
<g id="Node000003" class="node">
<title>Node3</title>
<g id="a_Node000003"><a xlink:title=" ">
<polygon fill="#e0e0e0" stroke="#999999" points="122.38,-19.25 71.12,-19.25 71.12,0 122.38,0 122.38,-19.25"/>
<text text-anchor="middle" x="96.75" y="-5.75" font-family="Helvetica,sans-Serif" font-size="10.00">sstream</text>
</a>
</g>
</g>
<!-- Node1&#45;&gt;Node3 -->
<g id="edge2_Node000001_Node000003" class="edge">
<title>Node1&#45;&gt;Node3</title>
<g id="a_edge2_Node000001_Node000003"><a xlink:title=" ">
<path fill="none" stroke="#63b8ff" d="M255.35,-54.84C221.64,-45.44 168.95,-30.75 133.65,-20.91"/>
<polygon fill="#63b8ff" stroke="#63b8ff" points="134.88,-17.62 124.31,-18.31 133,-24.37 134.88,-17.62"/>
</a>
</g>
</g>
<!-- Node4 -->
<g id="Node000004" class="node">
<title>Node4</title>
<g id="a_Node000004"><a xlink:title=" ">
<polygon fill="#e0e0e0" stroke="#999999" points="180.75,-19.25 140.75,-19.25 140.75,0 180.75,0 180.75,-19.25"/>
<text text-anchor="middle" x="160.75" y="-5.75" font-family="Helvetica,sans-Serif" font-size="10.00">string</text>
</a>
</g>
</g>
<!-- Node1&#45;&gt;Node4 -->
<g id="edge3_Node000001_Node000004" class="edge">
<title>Node1&#45;&gt;Node4</title>
<g id="a_edge3_Node000001_Node000004"><a xlink:title=" ">
<path fill="none" stroke="#63b8ff" d="M266.21,-54.84C245.68,-46.23 214.56,-33.19 191.45,-23.5"/>
<polygon fill="#63b8ff" stroke="#63b8ff" points="193.11,-20.4 182.53,-19.76 190.4,-26.85 193.11,-20.4"/>
</a>
</g>
</g>
<!-- Node5 -->
<g id="Node000005" class="node">
<title>Node5</title>
<g id="a_Node000005"><a xlink:title=" ">
<polygon fill="#e0e0e0" stroke="#999999" points="242.25,-19.25 199.25,-19.25 199.25,0 242.25,0 242.25,-19.25"/>
<text text-anchor="middle" x="220.75" y="-5.75" font-family="Helvetica,sans-Serif" font-size="10.00">vector</text>
</a>
</g>
</g>
<!-- Node1&#45;&gt;Node5 -->
<g id="edge4_Node000001_Node000005" class="edge">
<title>Node1&#45;&gt;Node5</title>
<g id="a_edge4_Node000001_Node000005"><a xlink:title=" ">
<path fill="none" stroke="#63b8ff" d="M276.38,-54.84C266.7,-47.15 252.55,-35.9 240.94,-26.68"/>
<polygon fill="#63b8ff" stroke="#63b8ff" points="243.14,-23.95 233.13,-20.47 238.78,-29.43 243.14,-23.95"/>
</a>
</g>
</g>
<!-- Node6 -->
<g id="Node000006" class="node">
<title>Node6</title>
<g id="a_Node000006"><a xlink:title=" ">
<polygon fill="#e0e0e0" stroke="#999999" points="315.62,-19.25 259.88,-19.25 259.88,0 315.62,0 315.62,-19.25"/>
<text text-anchor="middle" x="287.75" y="-5.75" font-family="Helvetica,sans-Serif" font-size="10.00">algorithm</text>
</a>
</g>
</g>
<!-- Node1&#45;&gt;Node6 -->
<g id="edge5_Node000001_Node000006" class="edge">
<title>Node1&#45;&gt;Node6</title>
<g id="a_edge5_Node000001_Node000006"><a xlink:title=" ">
<path fill="none" stroke="#63b8ff" d="M287.75,-55.08C287.75,-48.57 287.75,-39.42 287.75,-31.12"/>
<polygon fill="#63b8ff" stroke="#63b8ff" points="291.25,-31.12 287.75,-21.12 284.25,-31.12 291.25,-31.12"/>
</a>
</g>
</g>
<!-- Node7 -->
<g id="Node000007" class="node">
<title>Node7</title>
<g id="a_Node000007"><a xlink:title=" ">
<polygon fill="#e0e0e0" stroke="#999999" points="405.88,-19.25 333.62,-19.25 333.62,0 405.88,0 405.88,-19.25"/>
<text text-anchor="middle" x="369.75" y="-5.75" font-family="Helvetica,sans-Serif" font-size="10.00">Eigen/Dense</text>
</a>
</g>
</g>
<!-- Node1&#45;&gt;Node7 -->
<g id="edge6_Node000001_Node000007" class="edge">
<title>Node1&#45;&gt;Node7</title>
<g id="a_edge6_Node000001_Node000007"><a xlink:title=" ">
<path fill="none" stroke="#63b8ff" d="M301.66,-54.84C313.91,-46.89 332,-35.14 346.46,-25.75"/>
<polygon fill="#63b8ff" stroke="#63b8ff" points="348.02,-28.91 354.5,-20.53 344.21,-23.04 348.02,-28.91"/>
</a>
</g>
</g>
<!-- Node8 -->
<g id="Node000008" class="node">
<title>Node8</title>
<g id="a_Node000008"><a xlink:title=" ">
<polygon fill="#e0e0e0" stroke="#999999" points="489.88,-19.25 423.62,-19.25 423.62,0 489.88,0 489.88,-19.25"/>
<text text-anchor="middle" x="456.75" y="-5.75" font-family="Helvetica,sans-Serif" font-size="10.00">Optimist.hh</text>
</a>
</g>
</g>
<!-- Node1&#45;&gt;Node8 -->
<g id="edge7_Node000001_Node000008" class="edge">
<title>Node1&#45;&gt;Node8</title>
<g id="a_edge7_Node000001_Node000008"><a xlink:title=" ">
<path fill="none" stroke="#63b8ff" d="M316.42,-54.84C344.1,-46.12 386.24,-32.84 417.12,-23.11"/>
<polygon fill="#63b8ff" stroke="#63b8ff" points="418.01,-26.5 426.5,-20.16 415.91,-19.82 418.01,-26.5"/>
</a>
</g>
</g>
<!-- Node9 -->
<g id="Node000009" class="node">
<title>Node9</title>
<g id="a_Node000009"><a xlink:href="_poly_8hxx.html" target="_top" xlink:title=" ">
<polygon fill="white" stroke="#666666" points="589.75,-19.25 507.75,-19.25 507.75,0 589.75,0 589.75,-19.25"/>
<text text-anchor="middle" x="548.75" y="-5.75" font-family="Helvetica,sans-Serif" font-size="10.00">Sturm/Poly.hxx</text>
</a>
</g>
</g>
<!-- Node1&#45;&gt;Node9 -->
<g id="edge8_Node000001_Node000009" class="edge">
<title>Node1&#45;&gt;Node9</title>
<g id="a_edge8_Node000001_Node000009"><a xlink:title=" ">
<path fill="none" stroke="#63b8ff" d="M332.32,-54.78C377.74,-45.51 448.17,-31.15 496.27,-21.33"/>
<polygon fill="#63b8ff" stroke="#63b8ff" points="496.8,-24.8 505.89,-19.37 495.4,-17.94 496.8,-24.8"/>
</a>
</g>
</g>
<!-- Node10 -->
<g id="Node000010" class="node">
<title>Node10</title>
<g id="a_Node000010"><a xlink:href="_sequence_8hxx.html" target="_top" xlink:title=" ">
<polygon fill="white" stroke="#666666" points="715.5,-19.25 608,-19.25 608,0 715.5,0 715.5,-19.25"/>
<text text-anchor="middle" x="661.75" y="-5.75" font-family="Helvetica,sans-Serif" font-size="10.00">Sturm/Sequence.hxx</text>
</a>
</g>
</g>
<!-- Node1&#45;&gt;Node10 -->
<g id="edge9_Node000001_Node000010" class="edge">
<title>Node1&#45;&gt;Node10</title>
<g id="a_edge9_Node000001_Node000010"><a xlink:title=" ">
<path fill="none" stroke="#63b8ff" d="M332.86,-57.45C398.56,-48.1 520.93,-30.67 596.46,-19.92"/>
<polygon fill="#63b8ff" stroke="#63b8ff" points="596.8,-23.41 606.21,-18.53 595.82,-16.48 596.8,-23.41"/>
</a>
</g>
</g>
</g>
</svg>
