<?xml version="1.0" encoding="UTF-8" standalone="no"?>
<!DOCTYPE svg PUBLIC "-//W3C//DTD SVG 1.1//EN"
 "http://www.w3.org/Graphics/SVG/1.1/DTD/svg11.dtd">
<!-- Generated by graphviz version 14.1.2 (20260124.0452)
 -->
<!-- Title: core/include/Sturm.hh Pages: 1 -->
<svg width="151pt" height="160pt"
 viewBox="0.00 0.00 151.00 160.00" xmlns="http://www.w3.org/2000/svg" xmlns:xlink="http://www.w3.org/1999/xlink">
<g id="graph0" class="graph" transform="scale(1 1) rotate(0) translate(4 156.25)">
<title>core/include/Sturm.hh</title>
<!-- Node1 -->
<g id="Node000001" class="node">
<title>Node1</title>
<g id="a_Node000001"><a xlink:title=" ">
<polygon fill="#999999" stroke="#666666" points="142.5,-152.25 31.25,-152.25 31.25,-133 142.5,-133 142.5,-152.25"/>
<text xml:space="preserve" text-anchor="middle" x="86.88" y="-138.75" font-family="Helvetica,sans-Serif" font-size="10.00">core/include/Sturm.hh</text>
</a>
</g>
</g>
<!-- Node2 -->
<g id="Node000002" class="node">
<title>Node2</title>
<g id="a_Node000002"><a xlink:href="_poly_8hh.html" target="_top" xlink:title=" ">
<polygon fill="white" stroke="#666666" points="97.75,-97 0,-97 0,-66.5 97.75,-66.5 97.75,-97"/>
<text xml:space="preserve" text-anchor="start" x="8" y="-83.5" font-family="Helvetica,sans-Serif" font-size="10.00">core/include/Sturm</text>
<text xml:space="preserve" text-anchor="middle" x="48.88" y="-72.25" font-family="Helvetica,sans-Serif" font-size="10.00">/Poly.hh</text>
</a>
</g>
</g>
<!-- Node1&#45;&gt;Node2 -->
<g id="edge1_Node000001_Node000002" class="edge">
<title>Node1&#45;&gt;Node2</title>
<g id="a_edge1_Node000001_Node000002"><a xlink:title=" ">
<path fill="none" stroke="#63b8ff" d="M74.92,-123.1C69.54,-114.77 63.29,-105.08 58.25,-97.28"/>
<polygon fill="#63b8ff" stroke="#63b8ff" points="71.92,-124.91 80.28,-131.41 77.8,-121.11 71.92,-124.91"/>
</a>
</g>
</g>
<!-- Node3 -->
<g id="Node000003" class="node">
<title>Node3</title>
<g id="a_Node000003"><a xlink:href="_sequence_8hh.html" target="_top" xlink:title=" ">
<polygon fill="white" stroke="#666666" points="135.75,-30.5 38,-30.5 38,0 135.75,0 135.75,-30.5"/>
<text xml:space="preserve" text-anchor="start" x="46" y="-17" font-family="Helvetica,sans-Serif" font-size="10.00">core/include/Sturm</text>
<text xml:space="preserve" text-anchor="middle" x="86.88" y="-5.75" font-family="Helvetica,sans-Serif" font-size="10.00">/Sequence.hh</text>
</a>
</g>
</g>
<!-- Node1&#45;&gt;Node3 -->
<g id="edge3_Node000001_Node000003" class="edge">
<title>Node1&#45;&gt;Node3</title>
<g id="a_edge3_Node000001_Node000003"><a xlink:title=" ">
<path fill="none" stroke="#63b8ff" d="M97.47,-122.71C101.23,-114.99 104.99,-105.81 106.88,-97 109.71,-83.74 109.43,-79.81 106.88,-66.5 104.47,-53.96 98.98,-40.56 94.35,-30.76"/>
<polygon fill="#63b8ff" stroke="#63b8ff" points="94.44,-120.96 92.89,-131.44 100.64,-124.21 94.44,-120.96"/>
</a>
</g>
</g>
<!-- Node2&#45;&gt;Node3 -->
<g id="edge2_Node000002_Node000003" class="edge">
<title>Node2&#45;&gt;Node3</title>
<g id="a_edge2_Node000002_Node000003"><a xlink:title=" ">
<path fill="none" stroke="#63b8ff" d="M63.32,-56.23C68.37,-47.66 73.87,-38.32 78.29,-30.83"/>
<polygon fill="#63b8ff" stroke="#63b8ff" points="60.33,-54.42 58.27,-64.81 66.36,-57.97 60.33,-54.42"/>
</a>
</g>
</g>
</g>
</svg>
