<?xml version="1.0" encoding="UTF-8" standalone="no"?>
<!DOCTYPE svg PUBLIC "-//W3C//DTD SVG 1.1//EN"
 "http://www.w3.org/Graphics/SVG/1.1/DTD/svg11.dtd">
<!-- Generated by graphviz version 12.2.1 (20241206.2353)
 -->
<!-- Title: include/Sturm.hh Pages: 1 -->
<svg width="172pt" height="138pt"
 viewBox="0.00 0.00 172.25 137.75" xmlns="http://www.w3.org/2000/svg" xmlns:xlink="http://www.w3.org/1999/xlink">
<g id="graph0" class="graph" transform="scale(1 1) rotate(0) translate(4 133.75)">
<title>include/Sturm.hh</title>
<!-- Node1 -->
<g id="Node000001" class="node">
<title>Node1</title>
<g id="a_Node000001"><a xlink:title=" ">
<polygon fill="#999999" stroke="#666666" points="141,-129.75 51.5,-129.75 51.5,-110.5 141,-110.5 141,-129.75"/>
<text text-anchor="middle" x="96.25" y="-116.25" font-family="Helvetica,sans-Serif" font-size="10.00">include/Sturm.hh</text>
</a>
</g>
</g>
<!-- Node2 -->
<g id="Node000002" class="node">
<title>Node2</title>
<g id="a_Node000002"><a xlink:href="_poly_8hh.html" target="_top" xlink:title=" ">
<polygon fill="white" stroke="#666666" points="110.5,-74.5 0,-74.5 0,-55.25 110.5,-55.25 110.5,-74.5"/>
<text text-anchor="middle" x="55.25" y="-61" font-family="Helvetica,sans-Serif" font-size="10.00">include/Sturm/Poly.hh</text>
</a>
</g>
</g>
<!-- Node1&#45;&gt;Node2 -->
<g id="edge1_Node000001_Node000002" class="edge">
<title>Node1&#45;&gt;Node2</title>
<g id="a_edge1_Node000001_Node000002"><a xlink:title=" ">
<path fill="none" stroke="#63b8ff" d="M82.66,-101.47C75.79,-92.56 67.76,-82.12 62.17,-74.86"/>
<polygon fill="#63b8ff" stroke="#63b8ff" points="79.68,-103.34 88.56,-109.13 85.23,-99.07 79.68,-103.34"/>
</a>
</g>
</g>
<!-- Node3 -->
<g id="Node000003" class="node">
<title>Node3</title>
<g id="a_Node000003"><a xlink:href="_sequence_8hh.html" target="_top" xlink:title=" ">
<polygon fill="white" stroke="#666666" points="164.25,-19.25 28.25,-19.25 28.25,0 164.25,0 164.25,-19.25"/>
<text text-anchor="middle" x="96.25" y="-5.75" font-family="Helvetica,sans-Serif" font-size="10.00">include/Sturm/Sequence.hh</text>
</a>
</g>
</g>
<!-- Node1&#45;&gt;Node3 -->
<g id="edge3_Node000001_Node000003" class="edge">
<title>Node1&#45;&gt;Node3</title>
<g id="a_edge3_Node000001_Node000003"><a xlink:title=" ">
<path fill="none" stroke="#63b8ff" d="M108.44,-100.37C112.75,-92.68 117.07,-83.48 119.25,-74.5 124.14,-54.34 111.43,-31.71 103.02,-19.53"/>
<polygon fill="#63b8ff" stroke="#63b8ff" points="105.54,-98.4 103.35,-108.77 111.53,-102.03 105.54,-98.4"/>
</a>
</g>
</g>
<!-- Node2&#45;&gt;Node3 -->
<g id="edge2_Node000002_Node000003" class="edge">
<title>Node2&#45;&gt;Node3</title>
<g id="a_edge2_Node000002_Node000003"><a xlink:title=" ">
<path fill="none" stroke="#63b8ff" d="M68.84,-46.22C75.71,-37.31 83.74,-26.87 89.33,-19.61"/>
<polygon fill="#63b8ff" stroke="#63b8ff" points="66.27,-43.82 62.94,-53.88 71.82,-48.09 66.27,-43.82"/>
</a>
</g>
</g>
</g>
</svg>
