<?xml version="1.0" encoding="UTF-8" standalone="no"?>
<!DOCTYPE svg PUBLIC "-//W3C//DTD SVG 1.1//EN"
 "http://www.w3.org/Graphics/SVG/1.1/DTD/svg11.dtd">
<!-- Generated by graphviz version 14.1.2 (20260124.0452)
 -->
<!-- Title: core/include/Sturm.hh Pages: 1 -->
<svg width="415pt" height="83pt"
 viewBox="0.00 0.00 415.00 83.00" xmlns="http://www.w3.org/2000/svg" xmlns:xlink="http://www.w3.org/1999/xlink">
<g id="graph0" class="graph" transform="scale(1 1) rotate(0) translate(4 78.5)">
<title>core/include/Sturm.hh</title>
<!-- Node1 -->
<g id="Node000001" class="node">
<title>Node1</title>
<g id="a_Node000001"><a xlink:title=" ">
<polygon fill="#999999" stroke="#666666" points="258.5,-74.5 147.25,-74.5 147.25,-55.25 258.5,-55.25 258.5,-74.5"/>
<text xml:space="preserve" text-anchor="middle" x="202.88" y="-61" font-family="Helvetica,sans-Serif" font-size="10.00">core/include/Sturm.hh</text>
</a>
</g>
</g>
<!-- Node2 -->
<g id="Node000002" class="node">
<title>Node2</title>
<g id="a_Node000002"><a xlink:title=" ">
<polygon fill="#e0e0e0" stroke="#999999" points="55.75,-19.25 0,-19.25 0,0 55.75,0 55.75,-19.25"/>
<text xml:space="preserve" text-anchor="middle" x="27.88" y="-5.75" font-family="Helvetica,sans-Serif" font-size="10.00">algorithm</text>
</a>
</g>
</g>
<!-- Node1&#45;&gt;Node2 -->
<g id="edge1_Node000001_Node000002" class="edge">
<title>Node1&#45;&gt;Node2</title>
<g id="a_edge1_Node000001_Node000002"><a xlink:title=" ">
<path fill="none" stroke="#63b8ff" d="M173.19,-54.84C143.88,-45.92 98.9,-32.24 66.76,-22.46"/>
<polygon fill="#63b8ff" stroke="#63b8ff" points="68,-19.18 57.42,-19.61 65.96,-25.87 68,-19.18"/>
</a>
</g>
</g>
<!-- Node3 -->
<g id="Node000003" class="node">
<title>Node3</title>
<g id="a_Node000003"><a xlink:title=" ">
<polygon fill="#e0e0e0" stroke="#999999" points="127.62,-19.25 74.12,-19.25 74.12,0 127.62,0 127.62,-19.25"/>
<text xml:space="preserve" text-anchor="middle" x="100.88" y="-5.75" font-family="Helvetica,sans-Serif" font-size="10.00">iostream</text>
</a>
</g>
</g>
<!-- Node1&#45;&gt;Node3 -->
<g id="edge2_Node000001_Node000003" class="edge">
<title>Node1&#45;&gt;Node3</title>
<g id="a_edge2_Node000001_Node000003"><a xlink:title=" ">
<path fill="none" stroke="#63b8ff" d="M185.57,-54.84C169.89,-46.66 146.52,-34.46 128.3,-24.94"/>
<polygon fill="#63b8ff" stroke="#63b8ff" points="130.09,-21.93 119.6,-20.4 126.85,-28.13 130.09,-21.93"/>
</a>
</g>
</g>
<!-- Node4 -->
<g id="Node000004" class="node">
<title>Node4</title>
<g id="a_Node000004"><a xlink:title=" ">
<polygon fill="#e0e0e0" stroke="#999999" points="196.5,-19.25 145.25,-19.25 145.25,0 196.5,0 196.5,-19.25"/>
<text xml:space="preserve" text-anchor="middle" x="170.88" y="-5.75" font-family="Helvetica,sans-Serif" font-size="10.00">sstream</text>
</a>
</g>
</g>
<!-- Node1&#45;&gt;Node4 -->
<g id="edge3_Node000001_Node000004" class="edge">
<title>Node1&#45;&gt;Node4</title>
<g id="a_edge3_Node000001_Node000004"><a xlink:title=" ">
<path fill="none" stroke="#63b8ff" d="M197.59,-55.08C193.4,-48.11 187.4,-38.12 182.14,-29.37"/>
<polygon fill="#63b8ff" stroke="#63b8ff" points="185.2,-27.68 177.05,-20.91 179.2,-31.28 185.2,-27.68"/>
</a>
</g>
</g>
<!-- Node5 -->
<g id="Node000005" class="node">
<title>Node5</title>
<g id="a_Node000005"><a xlink:title=" ">
<polygon fill="#e0e0e0" stroke="#999999" points="254.88,-19.25 214.88,-19.25 214.88,0 254.88,0 254.88,-19.25"/>
<text xml:space="preserve" text-anchor="middle" x="234.88" y="-5.75" font-family="Helvetica,sans-Serif" font-size="10.00">string</text>
</a>
</g>
</g>
<!-- Node1&#45;&gt;Node5 -->
<g id="edge4_Node000001_Node000005" class="edge">
<title>Node1&#45;&gt;Node5</title>
<g id="a_edge4_Node000001_Node000005"><a xlink:title=" ">
<path fill="none" stroke="#63b8ff" d="M208.16,-55.08C212.35,-48.11 218.35,-38.12 223.61,-29.37"/>
<polygon fill="#63b8ff" stroke="#63b8ff" points="226.55,-31.28 228.7,-20.91 220.55,-27.68 226.55,-31.28"/>
</a>
</g>
</g>
<!-- Node6 -->
<g id="Node000006" class="node">
<title>Node6</title>
<g id="a_Node000006"><a xlink:title=" ">
<polygon fill="#e0e0e0" stroke="#999999" points="316.38,-19.25 273.38,-19.25 273.38,0 316.38,0 316.38,-19.25"/>
<text xml:space="preserve" text-anchor="middle" x="294.88" y="-5.75" font-family="Helvetica,sans-Serif" font-size="10.00">vector</text>
</a>
</g>
</g>
<!-- Node1&#45;&gt;Node6 -->
<g id="edge5_Node000001_Node000006" class="edge">
<title>Node1&#45;&gt;Node6</title>
<g id="a_edge5_Node000001_Node000006"><a xlink:title=" ">
<path fill="none" stroke="#63b8ff" d="M218.48,-54.84C232.49,-46.73 253.31,-34.68 269.68,-25.21"/>
<polygon fill="#63b8ff" stroke="#63b8ff" points="270.98,-28.5 277.88,-20.46 267.47,-22.44 270.98,-28.5"/>
</a>
</g>
</g>
<!-- Node7 -->
<g id="Node000007" class="node">
<title>Node7</title>
<g id="a_Node000007"><a xlink:title=" ">
<polygon fill="#e0e0e0" stroke="#999999" points="407,-19.25 334.75,-19.25 334.75,0 407,0 407,-19.25"/>
<text xml:space="preserve" text-anchor="middle" x="370.88" y="-5.75" font-family="Helvetica,sans-Serif" font-size="10.00">Eigen/Dense</text>
</a>
</g>
</g>
<!-- Node1&#45;&gt;Node7 -->
<g id="edge6_Node000001_Node000007" class="edge">
<title>Node1&#45;&gt;Node7</title>
<g id="a_edge6_Node000001_Node000007"><a xlink:title=" ">
<path fill="none" stroke="#63b8ff" d="M231.37,-54.84C258.89,-46.12 300.78,-32.84 331.48,-23.11"/>
<polygon fill="#63b8ff" stroke="#63b8ff" points="332.32,-26.52 340.79,-20.16 330.2,-19.84 332.32,-26.52"/>
</a>
</g>
</g>
</g>
</svg>
