<?xml version="1.0" encoding="UTF-8" standalone="no"?>
<!DOCTYPE svg PUBLIC "-//W3C//DTD SVG 1.1//EN"
 "http://www.w3.org/Graphics/SVG/1.1/DTD/svg11.dtd">
<!-- Generated by graphviz version 12.2.1 (20241206.2353)
 -->
<!-- Title: include/Sturm.hh Pages: 1 -->
<svg width="640pt" height="83pt"
 viewBox="0.00 0.00 639.50 82.50" xmlns="http://www.w3.org/2000/svg" xmlns:xlink="http://www.w3.org/1999/xlink">
<g id="graph0" class="graph" transform="scale(1 1) rotate(0) translate(4 78.5)">
<title>include/Sturm.hh</title>
<!-- Node1 -->
<g id="Node000001" class="node">
<title>Node1</title>
<g id="a_Node000001"><a xlink:title=" ">
<polygon fill="#999999" stroke="#666666" points="298.5,-74.5 209,-74.5 209,-55.25 298.5,-55.25 298.5,-74.5"/>
<text text-anchor="middle" x="253.75" y="-61" font-family="Helvetica,sans-Serif" font-size="10.00">include/Sturm.hh</text>
</a>
</g>
</g>
<!-- Node2 -->
<g id="Node000002" class="node">
<title>Node2</title>
<g id="a_Node000002"><a xlink:title=" ">
<polygon fill="#e0e0e0" stroke="#999999" points="53.5,-19.25 0,-19.25 0,0 53.5,0 53.5,-19.25"/>
<text text-anchor="middle" x="26.75" y="-5.75" font-family="Helvetica,sans-Serif" font-size="10.00">iostream</text>
</a>
</g>
</g>
<!-- Node1&#45;&gt;Node2 -->
<g id="edge1_Node000001_Node000002" class="edge">
<title>Node1&#45;&gt;Node2</title>
<g id="a_edge1_Node000001_Node000002"><a xlink:title=" ">
<path fill="none" stroke="#63b8ff" d="M214,-54.8C177.5,-46.43 121.62,-33.52 64.86,-19.97"/>
<polygon fill="#63b8ff" stroke="#63b8ff" points="65.89,-16.62 55.35,-17.7 64.26,-23.43 65.89,-16.62"/>
</a>
</g>
</g>
<!-- Node3 -->
<g id="Node000003" class="node">
<title>Node3</title>
<g id="a_Node000003"><a xlink:title=" ">
<polygon fill="#e0e0e0" stroke="#999999" points="122.38,-19.25 71.12,-19.25 71.12,0 122.38,0 122.38,-19.25"/>
<text text-anchor="middle" x="96.75" y="-5.75" font-family="Helvetica,sans-Serif" font-size="10.00">sstream</text>
</a>
</g>
</g>
<!-- Node1&#45;&gt;Node3 -->
<g id="edge2_Node000001_Node000003" class="edge">
<title>Node1&#45;&gt;Node3</title>
<g id="a_edge2_Node000001_Node000003"><a xlink:title=" ">
<path fill="none" stroke="#63b8ff" d="M227.12,-54.84C201.4,-46.12 162.23,-32.84 133.54,-23.1"/>
<polygon fill="#63b8ff" stroke="#63b8ff" points="134.76,-19.82 124.16,-19.92 132.51,-26.45 134.76,-19.82"/>
</a>
</g>
</g>
<!-- Node4 -->
<g id="Node000004" class="node">
<title>Node4</title>
<g id="a_Node000004"><a xlink:title=" ">
<polygon fill="#e0e0e0" stroke="#999999" points="180.75,-19.25 140.75,-19.25 140.75,0 180.75,0 180.75,-19.25"/>
<text text-anchor="middle" x="160.75" y="-5.75" font-family="Helvetica,sans-Serif" font-size="10.00">string</text>
</a>
</g>
</g>
<!-- Node1&#45;&gt;Node4 -->
<g id="edge3_Node000001_Node000004" class="edge">
<title>Node1&#45;&gt;Node4</title>
<g id="a_edge3_Node000001_Node000004"><a xlink:title=" ">
<path fill="none" stroke="#63b8ff" d="M237.97,-54.84C223.81,-46.73 202.77,-34.68 186.22,-25.21"/>
<polygon fill="#63b8ff" stroke="#63b8ff" points="188.33,-22.39 177.92,-20.45 184.86,-28.46 188.33,-22.39"/>
</a>
</g>
</g>
<!-- Node5 -->
<g id="Node000005" class="node">
<title>Node5</title>
<g id="a_Node000005"><a xlink:title=" ">
<polygon fill="#e0e0e0" stroke="#999999" points="242.25,-19.25 199.25,-19.25 199.25,0 242.25,0 242.25,-19.25"/>
<text text-anchor="middle" x="220.75" y="-5.75" font-family="Helvetica,sans-Serif" font-size="10.00">vector</text>
</a>
</g>
</g>
<!-- Node1&#45;&gt;Node5 -->
<g id="edge4_Node000001_Node000005" class="edge">
<title>Node1&#45;&gt;Node5</title>
<g id="a_edge4_Node000001_Node000005"><a xlink:title=" ">
<path fill="none" stroke="#63b8ff" d="M248.3,-55.08C243.98,-48.11 237.79,-38.12 232.37,-29.37"/>
<polygon fill="#63b8ff" stroke="#63b8ff" points="235.36,-27.55 227.11,-20.9 229.41,-31.24 235.36,-27.55"/>
</a>
</g>
</g>
<!-- Node6 -->
<g id="Node000006" class="node">
<title>Node6</title>
<g id="a_Node000006"><a xlink:title=" ">
<polygon fill="#e0e0e0" stroke="#999999" points="315.62,-19.25 259.88,-19.25 259.88,0 315.62,0 315.62,-19.25"/>
<text text-anchor="middle" x="287.75" y="-5.75" font-family="Helvetica,sans-Serif" font-size="10.00">algorithm</text>
</a>
</g>
</g>
<!-- Node1&#45;&gt;Node6 -->
<g id="edge5_Node000001_Node000006" class="edge">
<title>Node1&#45;&gt;Node6</title>
<g id="a_edge5_Node000001_Node000006"><a xlink:title=" ">
<path fill="none" stroke="#63b8ff" d="M259.36,-55.08C263.87,-48.03 270.34,-37.9 275.96,-29.08"/>
<polygon fill="#63b8ff" stroke="#63b8ff" points="278.77,-31.2 281.2,-20.88 272.87,-27.43 278.77,-31.2"/>
</a>
</g>
</g>
<!-- Node7 -->
<g id="Node000007" class="node">
<title>Node7</title>
<g id="a_Node000007"><a xlink:title=" ">
<polygon fill="#e0e0e0" stroke="#999999" points="405.88,-19.25 333.62,-19.25 333.62,0 405.88,0 405.88,-19.25"/>
<text text-anchor="middle" x="369.75" y="-5.75" font-family="Helvetica,sans-Serif" font-size="10.00">Eigen/Dense</text>
</a>
</g>
</g>
<!-- Node1&#45;&gt;Node7 -->
<g id="edge6_Node000001_Node000007" class="edge">
<title>Node1&#45;&gt;Node7</title>
<g id="a_edge6_Node000001_Node000007"><a xlink:title=" ">
<path fill="none" stroke="#63b8ff" d="M273.43,-54.84C291.59,-46.5 318.83,-34 339.72,-24.41"/>
<polygon fill="#63b8ff" stroke="#63b8ff" points="340.97,-27.69 348.6,-20.33 338.05,-21.33 340.97,-27.69"/>
</a>
</g>
</g>
<!-- Node8 -->
<g id="Node000008" class="node">
<title>Node8</title>
<g id="a_Node000008"><a xlink:href="_poly_8hxx.html" target="_top" xlink:title=" ">
<polygon fill="white" stroke="#666666" points="505.75,-19.25 423.75,-19.25 423.75,0 505.75,0 505.75,-19.25"/>
<text text-anchor="middle" x="464.75" y="-5.75" font-family="Helvetica,sans-Serif" font-size="10.00">Sturm/Poly.hxx</text>
</a>
</g>
</g>
<!-- Node1&#45;&gt;Node8 -->
<g id="edge7_Node000001_Node000008" class="edge">
<title>Node1&#45;&gt;Node8</title>
<g id="a_edge7_Node000001_Node000008"><a xlink:title=" ">
<path fill="none" stroke="#63b8ff" d="M289.54,-54.84C324.86,-45.93 379.03,-32.26 417.79,-22.48"/>
<polygon fill="#63b8ff" stroke="#63b8ff" points="418.47,-25.91 427.31,-20.07 416.76,-19.13 418.47,-25.91"/>
</a>
</g>
</g>
<!-- Node9 -->
<g id="Node000009" class="node">
<title>Node9</title>
<g id="a_Node000009"><a xlink:href="_sequence_8hxx.html" target="_top" xlink:title=" ">
<polygon fill="white" stroke="#666666" points="631.5,-19.25 524,-19.25 524,0 631.5,0 631.5,-19.25"/>
<text text-anchor="middle" x="577.75" y="-5.75" font-family="Helvetica,sans-Serif" font-size="10.00">Sturm/Sequence.hxx</text>
</a>
</g>
</g>
<!-- Node1&#45;&gt;Node9 -->
<g id="edge8_Node000001_Node000009" class="edge">
<title>Node1&#45;&gt;Node9</title>
<g id="a_edge8_Node000001_Node000009"><a xlink:title=" ">
<path fill="none" stroke="#63b8ff" d="M298.8,-56.47C354.33,-47.35 449.1,-31.77 512.56,-21.34"/>
<polygon fill="#63b8ff" stroke="#63b8ff" points="512.85,-24.84 522.15,-19.76 511.71,-17.93 512.85,-24.84"/>
</a>
</g>
</g>
</g>
</svg>
